<?xml version="1.0" encoding="iso-8859-1"?>
<!-- Generator: Adobe Illustrator 19.0.0, SVG Export Plug-In . SVG Version: 6.00 Build 0)  -->
<svg version="1.1" id="Capa_1" xmlns="http://www.w3.org/2000/svg" xmlns:xlink="http://www.w3.org/1999/xlink" x="0px" y="0px"
	 viewBox="0 0 512 512" style="enable-background:new 0 0 512 512;" xml:space="preserve">
<g>
	<g>
		<path d="M406,482H285.995C418.983,304.705,451,276.439,451,195C451,87.48,363.52,0,256,0S61,87.48,61,195
			c0,81.306,31.742,109.323,165.007,287H106c-8.291,0-15,6.709-15,15c0,8.291,6.709,15,15,15h300c8.291,0,15-6.709,15-15
			C421,488.709,414.291,482,406,482z M121,195c0-74.443,60.557-135,135-135s135,60.557,135,135c0,75.604-63.977,135-135,135
			C184.772,330,121,270.406,121,195z"/>
	</g>
</g>
<g>
	<g>
		<path d="M256,120c-33.091,0-60,26.909-60,60s26.909,60,60,60s60-26.909,60-60S289.091,120,256,120z"/>
	</g>
</g>
<g>
	<g>
		<path d="M322.592,240c-16.485,18.279-40.096,30-66.592,30c-26.496,0-50.107-11.721-66.592-30
			c-5.601,6.211-10.074,13.352-13.832,20.901C195.017,284.421,223.927,300,256,300s60.983-15.58,80.424-39.1
			C332.667,253.351,328.193,246.211,322.592,240z"/>
	</g>
</g>
<g>
</g>
<g>
</g>
<g>
</g>
<g>
</g>
<g>
</g>
<g>
</g>
<g>
</g>
<g>
</g>
<g>
</g>
<g>
</g>
<g>
</g>
<g>
</g>
<g>
</g>
<g>
</g>
<g>
</g>
</svg>
