<svg id="Capa_1" enable-background="new 0 0 512 512" height="512" viewBox="0 0 512 512" width="512" xmlns="http://www.w3.org/2000/svg"><g><g fill="#fed843"><path d="m308.582 109.164-24.683 49.395-54.58 8.203c-5.625.85-10.283 4.805-12.041 10.195-1.758 5.405-.308 11.338 3.735 15.322l39.331 38.745-9.067 54.463c-.938 5.596 1.377 11.25 5.977 14.59 4.57 3.34 10.664 3.765 15.732 1.187l49.014-25.43 49.014 25.43c5.156 2.664 11.241 2.095 15.732-1.187 4.6-3.34 6.914-8.994 5.977-14.59l-9.067-54.463 39.331-38.745c4.043-3.984 5.493-9.917 3.735-15.322-1.758-5.391-6.416-9.346-12.041-10.195l-54.58-8.203-24.683-49.395c-2.534-5.083-7.976-7.625-13.418-7.625s-10.884 2.542-13.418 7.625z"/><path d="m497.193 319.428c-6.445-3.472-14.37-1.875-18.911 3.794-34.439 43.081-86.38 67.778-141.282 67.778-5.063 0-10.042-.348-15-.76-92.249-7.663-165-85.045-165-179.24 0-86.572 61.729-161.928 146.792-177.792 7.163-1.348 12.319-7.632 12.246-14.912s-5.376-13.462-12.568-14.634c-14.942-2.461-28.506-3.662-41.47-3.662-140.61 0-255 115.39-255 256s114.39 256 255 256c20.638 0 40.578-4.219 60-8.939 83.599-20.317 153.812-81.407 182.21-165.674 2.329-6.9-.63-14.473-7.017-17.959z"/></g><g fill="#fabe2c"><path d="m504.21 337.387c2.329-6.899-.63-14.473-7.017-17.959-6.445-3.472-14.37-1.875-18.911 3.794-34.439 43.081-86.38 67.778-141.282 67.778-5.063 0-10.042-.348-15-.76v112.82c83.599-20.317 153.812-81.406 182.21-165.673z"/><path d="m386.746 300.077c4.6-3.34 6.914-8.994 5.977-14.59l-9.067-54.463 39.331-38.745c4.043-3.984 5.493-9.917 3.735-15.322-1.758-5.391-6.416-9.346-12.041-10.195l-54.58-8.203-24.683-49.395c-2.534-5.083-7.976-7.625-13.418-7.625v174.294l49.014 25.43c5.156 2.665 11.241 2.095 15.732-1.186z"/></g></g></svg>