<svg id="Capa_1" enable-background="new 0 0 512 512" height="512" viewBox="0 0 512 512" width="512" xmlns="http://www.w3.org/2000/svg"><g><path d="m344.68 369.11v16.01h-177.36v-16.01c-57.5-24.2-67.06-101.65-17.18-139.1l63.72-47.85c26.53-19.92 42.14-51.16 42.14-84.33 0 33.17 15.61 64.41 42.14 84.33l63.72 47.85c49.88 37.45 40.32 114.9-17.18 139.1z" fill="#ffda2d"/><path d="m256 97.83v287.29h88.68v-16.01c57.5-24.2 67.06-101.65 17.18-139.1l-63.72-47.85c-26.53-19.92-42.14-51.16-42.14-84.33z" fill="#fdb504"/><path d="m440.55 404.83v51.74h-369.1v-51.74c0-19.73 15.99-35.72 35.72-35.72h297.66c19.73 0 35.72 15.99 35.72 35.72z" fill="#f7dad5"/><path d="m440.55 404.83v51.74h-184.55v-87.46h148.83c19.73 0 35.72 15.99 35.72 35.72z" fill="#e5c3ba"/><path d="m512 476.28v35.72h-512v-35.72c0-19.73 16-35.72 35.73-35.72h440.54c19.73 0 35.73 15.99 35.73 35.72z" fill="#e5c3ba"/><path d="m512 476.28v35.72h-256v-71.44h220.27c19.73 0 35.73 15.99 35.73 35.72z" fill="#d8b3a7"/><path d="m312.94 94.35c-13 13-30.09 19.51-47.17 19.51-3.27 0-6.53-.24-9.77-.72-13.7-2.01-26.89-8.28-37.4-18.79-12.6-12.6-19.54-29.36-19.54-47.18s6.94-34.57 19.54-47.17l21.21 21.21c-6.93 6.94-10.75 16.16-10.75 25.96 0 9.81 3.82 19.03 10.75 25.96 4.65 4.66 10.26 7.8 16.19 9.42 12.32 3.39 26.07.24 35.73-9.42z" fill="#ffda2d"/><path d="m265.77 113.86c-3.27 0-6.53-.24-9.77-.72v-30.59c12.32 3.39 26.07.24 35.73-9.42l21.21 21.22c-13 13-30.09 19.51-47.17 19.51z" fill="#fdb504"/><path d="m240.86 277.01h30.28v30h-30.28z" fill="#97523e"/><path d="m256 277.01h15.14v30h-15.14z" fill="#7c3d30"/><path d="m180.295 277.009h30.282v30h-30.282z" fill="#97523e"/><path d="m301.423 277.009h30.282v30h-30.282z" fill="#7c3d30"/></g></svg>